ffmpeg version 3.4.8-0ubuntu0.2 Copyright (c) 2000-2020 the FFmpeg developers
  built with gcc 7 (Ubuntu 7.5.0-3ubuntu1~18.04)
  configuration: --prefix=/usr --extra-version=0ubuntu0.2 --toolchain=hardened --libdir=/usr/lib/x86_64-linux-gnu --incdir=/usr/include/x86_64-linux-gnu --enable-gpl --disable-stripping --enable-avresample --enable-avisynth --enable-gnutls --enable-ladspa --enable-libass --enable-libbluray --enable-libbs2b --enable-libcaca --enable-libcdio --enable-libflite --enable-libfontconfig --enable-libfreetype --enable-libfribidi --enable-libgme --enable-libgsm --enable-libmp3lame --enable-libmysofa --enable-libopenjpeg --enable-libopenmpt --enable-libopus --enable-libpulse --enable-librubberband --enable-librsvg --enable-libshine --enable-libsnappy --enable-libsoxr --enable-libspeex --enable-libssh --enable-libtheora --enable-libtwolame --enable-libvorbis --enable-libvpx --enable-libwavpack --enable-libwebp --enable-libx265 --enable-libxml2 --enable-libxvid --enable-libzmq --enable-libzvbi --enable-omx --enable-openal --enable-opengl --enable-sdl2 --enable-libdc1394 --enable-libdrm --enable-libiec61883 --enable-chromaprint --enable-frei0r --enable-libopencv --enable-libx264 --enable-shared
  libavutil      55. 78.100 / 55. 78.100
  libavcodec     57.107.100 / 57.107.100
  libavformat    57. 83.100 / 57. 83.100
  libavdevice    57. 10.100 / 57. 10.100
  libavfilter     6.107.100 /  6.107.100
  libavresample   3.  7.  0 /  3.  7.  0
  libswscale      4.  8.100 /  4.  8.100
  libswresample   2.  9.100 /  2.  9.100
  libpostproc    54.  7.100 / 54.  7.100
[rawvideo @ 0x557fc30a3a20] Estimating duration from bitrate, this may be inaccurate
Input #0, rawvideo, from '../../SVC-Encoder-20220109T061506Z-001/SVC-Encoder/Dataset/RollerCoaster/ERP_8x8/tile_yuv/Tile_0_480x240.yuv':
  Duration: 00:00:10.00, start: 0.000000, bitrate: 41472 kb/s
    Stream #0:0: Video: rawvideo (I420 / 0x30323449), yuv420p, 480x240, 41472 kb/s, 30 tbr, 30 tbn, 30 tbc
Stream mapping:
  Stream #0:0 -> #0:0 (rawvideo (native) -> h264 (libx264))
Press [q] to stop, [?] for help
[libx264 @ 0x557fc30b0c60] using cpu capabilities: MMX2 SSE2Fast LZCNT SSSE3 SSE4.2 AVX
[libx264 @ 0x557fc30b0c60] profile High, level 2.1
Output #0, rawvideo, to 'RollerCoaster_Tile_0_480x240_x264_QP_24.h264':
  Metadata:
    encoder         : Lavf57.83.100
    Stream #0:0: Video: h264 (libx264), yuv420p, 480x240, q=-1--1, 30 fps, 30 tbn, 30 tbc
    Metadata:
      encoder         : Lavc57.107.100 libx264
    Side data:
      cpb: bitrate max/min/avg: 0/0/0 buffer size: 0 vbv_delay: -1
frame=  300 fps=0.0 q=30.0 LPSNR=Y:inf U:inf V:inf *:inf size=       9kB time=00:00:09.93 bitrate=   7.6kbits/s speed=43.5x    
video:9kB audio:0kB subtitle:0kB other streams:0kB global headers:0kB muxing overhead: 0.000000%
[libx264 @ 0x557fc30b0c60] frame I:2     Avg QP:22.67  size:   708  PSNR Mean Y:56.86 U:58.65 V:60.32 Avg:57.49 Global:57.43
[libx264 @ 0x557fc30b0c60] frame P:76    Avg QP:23.92  size:    64  PSNR Mean Y:56.97 U:57.37 V:58.64 Avg:57.22 Global:57.19
[libx264 @ 0x557fc30b0c60] frame B:222   Avg QP:29.43  size:    14  PSNR Mean Y:56.91 U:57.30 V:58.59 Avg:57.16 Global:57.12
[libx264 @ 0x557fc30b0c60] consecutive B-frames:  1.3%  0.0%  0.0% 98.7%
[libx264 @ 0x557fc30b0c60] mb I  I16..4: 95.2%  4.8%  0.0%
[libx264 @ 0x557fc30b0c60] mb P  I16..4:  1.9%  0.4%  0.0%  P16..4:  3.5%  0.1%  0.0%  0.0%  0.0%    skip:94.2%
[libx264 @ 0x557fc30b0c60] mb B  I16..4:  0.0%  0.0%  0.0%  B16..8:  0.0%  0.0%  0.0%  direct: 0.0%  skip:100.0%  L0:38.5% L1:61.5% BI: 0.0%
[libx264 @ 0x557fc30b0c60] 8x8 transform intra:9.9% inter:100.0%
[libx264 @ 0x557fc30b0c60] coded y,uvDC,uvAC intra: 0.3% 5.0% 0.0% inter: 0.0% 0.1% 0.0%
[libx264 @ 0x557fc30b0c60] i16 v,h,dc,p: 35% 50%  6%  9%
[libx264 @ 0x557fc30b0c60] i8 v,h,dc,ddl,ddr,vr,hd,vl,hu:  2% 34% 64%  0%  0%  0%  1%  0%  0%
[libx264 @ 0x557fc30b0c60] i8c dc,h,v,p: 78% 18%  4%  0%
[libx264 @ 0x557fc30b0c60] Weighted P-Frames: Y:0.0% UV:0.0%
[libx264 @ 0x557fc30b0c60] ref P L0: 92.2%  1.2%  3.8%  2.7%
[libx264 @ 0x557fc30b0c60] ref B L0: 90.0% 10.0%
[libx264 @ 0x557fc30b0c60] ref B L1: 93.8%  6.2%
[libx264 @ 0x557fc30b0c60] PSNR Mean Y:56.927 U:57.327 V:58.612 Avg:57.179 Global:57.140 kb/s:7.57
